Results
version=1
nRows=26
nColumns=24
inDegrees=yes
endheader
time	pelvis_tilt	pelvis_list	pelvis_rotation	pelvis_tx	pelvis_ty	pelvis_tz	hip_flexion_r	hip_adduction_r	hip_rotation_r	knee_angle_r	ankle_angle_r	subtalar_angle_r	mtp_angle_r	hip_flexion_l	hip_adduction_l	hip_rotation_l	knee_angle_l	ankle_angle_l	subtalar_angle_l	mtp_angle_l	lumbar_extension	lumbar_bending	lumbar_rotation
      1.42500000	     -4.05772884	      2.77402540	     -4.78154460	      0.51845513	      1.07306851	      0.27420116	     21.42243625	     -5.47060883	     -5.03643179	    -63.14665002	      2.83499784	     -6.49838022	      7.64714117	      9.08002198	      4.95527433	      2.43259363	     -8.75916570	      3.29508167	     -4.05979536	      3.36501184	     -9.59653247	     -5.47094140	     -1.76648315
      1.42916667	     -4.06039948	      2.68438747	     -4.66492956	      0.52340586	      1.07365590	      0.27383670	     21.81505459	     -5.33921588	     -5.14231046	    -62.42681615	      3.08931047	     -6.38862709	      7.75661358	      8.56169713	      4.90921219	      2.66970433	     -8.29027012	      3.22098669	     -4.20595103	      3.34663524	     -9.58603794	     -5.32438825	     -1.93249611
      1.43333333	     -4.06191249	      2.59416544	     -4.54998397	      0.52833621	      1.07417416	      0.27346651	     22.20135395	     -5.21079448	     -5.24550716	    -61.68294307	      3.31677371	     -6.27367508	      7.82885321	      8.05838864	      4.85985128	      2.87877770	     -7.85801076	      3.23020331	     -4.29002109	      3.33419058	     -9.57870895	     -5.17579748	     -2.06794783
      1.43750000	     -4.08084527	      2.49871576	     -4.43262278	      0.53325067	      1.07462617	      0.27312572	     22.59280603	     -5.07010387	     -5.34512407	    -60.90345927	      3.54945047	     -6.22216607	      7.86733628	      7.59253461	      4.79689976	      3.03714327	     -7.46039502	      3.21118164	     -4.30967105	      3.32580596	     -9.55519423	     -5.03737088	     -2.15972398
      1.44166667	     -4.07979221	      2.43391365	     -4.31823661	      0.53814614	      1.07504299	      0.27276924	     22.96773669	     -4.97186359	     -5.43703428	    -60.12170904	      3.76615961	     -6.19054108	      7.94188304	      7.07196461	      4.77430465	      3.33889978	     -6.98393505	      3.14048331	     -4.55845192	      3.30309364	     -9.56189923	     -4.90939825	     -2.39829277
      1.44583333	     -4.09301098	      2.35838781	     -4.20265829	      0.54303086	      1.07539622	      0.27242920	     23.34341548	     -4.85909212	     -5.52774476	    -59.30293033	      3.95932958	     -6.18595517	      8.00175216	      6.59253787	      4.73279844	      3.56858673	     -6.56260577	      3.12317587	     -4.70364714	      3.28199568	     -9.54447500	     -4.78314727	     -2.53221814
      1.45000000	     -4.14504936	      2.29337615	     -4.10132538	      0.54791503	      1.07559311	      0.27213252	     23.76367401	     -4.74980907	     -5.60227877	    -58.48078035	      4.16805967	     -6.21275664	      8.01432382	      6.18235336	      4.69035494	      3.67185992	     -6.19645010	      3.17431730	     -4.64435661	      3.27924662	     -9.47555831	     -4.67225395	     -2.56505138
      1.45416667	     -4.12410529	      2.21117562	     -3.97726264	      0.55275643	      1.07591958	      0.27179412	     24.07723521	     -4.63700288	     -5.69787992	    -57.60110835	      4.30235286	     -6.27745715	      8.04649193	      5.67008366	      4.64237128	      3.96254801	     -5.78029915	      3.15334195	     -4.88779147	      3.25919645	     -9.50602447	     -4.53306202	     -2.80586079
      1.45833333	     -4.16519423	      2.14488759	     -3.86667205	      0.55760664	      1.07606874	      0.27150256	     24.45972213	     -4.52882560	     -5.76755932	    -56.71690465	      4.46371186	     -6.35659075	      8.06858710	      5.24254941	      4.59913640	      4.17668098	     -5.39901881	      3.15403135	     -5.02329864	      3.24062735	     -9.45278346	     -4.42002381	     -2.91533811
      1.46250000	     -4.20841007	      2.08615683	     -3.75693674	      0.56243318	      1.07615460	      0.27122050	     24.83960139	     -4.42837121	     -5.82988670	    -55.81907894	      4.61305583	     -6.46786364	      8.08050803	      4.82864113	      4.56187036	      4.37454602	     -5.03735833	      3.16972333	     -5.13506600	      3.22329912	     -9.40750132	     -4.31752490	     -3.03425187
      1.46666667	     -4.22890209	      2.02768449	     -3.65193465	      0.56724410	      1.07623455	      0.27095971	     25.18525878	     -4.32794046	     -5.88329854	    -54.89777536	      4.75226681	     -6.60233885	      8.08380557	      4.39230326	      4.52300065	      4.57014963	     -4.67843555	      3.19293604	     -5.24168127	      3.20643721	     -9.39329743	     -4.21808633	     -3.14573291
      1.47083333	     -4.29180328	      1.98695476	     -3.54737175	      0.57204731	      1.07617378	      0.27072361	     25.57531196	     -4.24112144	     -5.92365193	    -53.96995518	      4.87713690	     -6.75997158	      8.07886490	      4.01311453	      4.49785802	      4.76595058	     -4.34022254	      3.22301948	     -5.36052475	      3.18871589	     -9.32446556	     -4.13846118	     -3.26107807
      1.47500000	     -4.31064115	      1.93785499	     -3.44708356	      0.57682787	      1.07616059	      0.27050209	     25.90372976	     -4.14541854	     -5.95682322	    -53.01379277	      4.99375298	     -6.93424166	      8.06572708	      3.58762844	      4.46401196	      4.95349001	     -4.00349610	      3.25842257	     -5.46456417	      3.17131563	     -9.32081875	     -4.05335190	     -3.36328240
      1.47916667	     -4.35896966	      1.90171802	     -3.34626297	      0.58159806	      1.07603348	      0.27028907	     26.25958625	     -4.06285067	     -5.98219195	    -52.04848705	      5.13533995	     -7.08893002	      8.05433808	      3.21625605	      4.44000260	      5.09300468	     -3.71127368	      3.32086741	     -5.49434960	      3.16287374	     -9.27640272	     -3.98786813	     -3.42335686
      1.48333333	     -4.39935980	      1.88334323	     -3.25703661	      0.58635786	      1.07587072	      0.27012229	     26.60675848	     -3.99019350	     -5.98044817	    -51.07638218	      5.18471603	     -7.34288914	      8.02220908	      2.81275891	      4.43236946	      5.31668738	     -3.36683187	      3.35802261	     -5.66800298	      3.14266016	     -9.24488964	     -3.94178873	     -3.56558707
      1.48750000	     -4.42325034	      1.84951147	     -3.16054895	      0.59112070	      1.07570232	      0.26994386	     26.91514708	     -3.90846394	     -5.99402071	    -50.07467190	      5.30340553	     -7.50763749	      8.00271159	      2.42119417	      4.40742233	      5.45053798	     -3.08830405	      3.43523869	     -5.69803202	      3.13435805	     -9.22666250	     -3.87494076	     -3.61234502
      1.49166667	     -4.46630428	      1.82625990	     -3.07230745	      0.59587617	      1.07544008	      0.26979543	     27.24506220	     -3.83168662	     -5.99254362	    -49.07348461	      5.38564908	     -7.72971025	      7.97983292	      2.04254925	      4.38934979	      5.59914082	     -2.78964358	      3.51960874	     -5.74493912	      3.12704073	     -9.20624116	     -3.82651211	     -3.68033020
      1.49583333	     -4.50947634	      1.81963556	     -2.98501318	      0.60061368	      1.07513964	      0.26966623	     27.56708661	     -3.76677005	     -5.96756156	    -48.05550329	      5.43621588	     -7.96847536	      7.95127085	      1.67401461	      4.38820713	      5.76041360	     -2.51231491	      3.59419942	     -5.82794323	      3.11813743	     -9.17025592	     -3.79580142	     -3.76259272
      1.50000000	     -4.53999281	      1.83627495	     -2.90562863	      0.60534344	      1.07479599	      0.26955806	     27.87689605	     -3.72530405	     -5.92791808	    -47.04053587	      5.46825744	     -8.20774707	      7.91299267	      1.28554423	      4.41112178	      5.93940821	     -2.21903111	      3.66507874	     -5.94814513	      3.10595802	     -9.13864579	     -3.79374223	     -3.85420470
      1.50416667	     -4.56901635	      1.85276383	     -2.83152673	      0.61006896	      1.07440092	      0.26947875	     28.18142689	     -3.68251396	     -5.88961269	    -46.02446522	      5.49266603	     -8.43780193	      7.85865081	      0.88843973	      4.42974705	      6.13049400	     -1.90952722	      3.72726984	     -6.10231983	      3.08804057	     -9.14288870	     -3.80822722	     -3.94803106
      1.50833333	     -4.57934963	      1.87020528	     -2.75240959	      0.61479004	      1.07402173	      0.26939614	     28.44930860	     -3.64182598	     -5.84590732	    -44.98443649	      5.53747512	     -8.63139785	      7.80954333	      0.48597244	      4.44951500	      6.29365219	     -1.63304938	      3.80421570	     -6.19191930	      3.07241777	     -9.15437220	     -3.80805226	     -4.00744176
      1.51250000	     -4.62319276	      1.90810688	     -2.67930032	      0.61951416	      1.07350555	      0.26933022	     28.75795369	     -3.61993730	     -5.79048290	    -43.95974956	      5.62888496	     -8.77256855	      7.78410657	      0.13114115	      4.48823465	      6.41499709	     -1.38069696	      3.90858424	     -6.20806978	      3.06658056	     -9.13027609	     -3.82668743	     -4.04524503
      1.51666667	     -4.64742191	      1.92719774	     -2.60738733	      0.62425625	      1.07301140	      0.26928742	     29.02643903	     -3.57788065	     -5.74749773	    -42.90665886	      5.63066224	     -8.96780602	      7.74872054	     -0.25857467	      4.50351653	      6.55365077	     -1.10294937	      4.00819327	     -6.28155384	      3.05740795	     -9.13789685	     -3.84567239	     -4.10606169
      1.52083333	     -4.67151768	      1.99160153	     -2.54264185	      0.62896956	      1.07245720	      0.26926657	     29.30383402	     -3.57725506	     -5.66861416	    -41.86941088	      5.62586792	     -9.13801376	      7.69907313	     -0.64925430	      4.56702060	      6.73536952	     -0.81990988	      4.07756617	     -6.42067487	      3.04069729	     -9.12934396	     -3.90677704	     -4.18222025
      1.52500000	     -4.71315969	      2.06284820	     -2.48535171	      0.63371156	      1.07180655	      0.26926474	     29.60220899	     -3.58651006	     -5.60007843	    -40.85232380	      5.71734632	     -9.16321154	      7.68860182	     -1.01138458	      4.63531121	      6.83173048	     -0.55985352	      4.21623244	     -6.39137508	      3.04026676	     -9.10744149	     -3.98754493	     -4.21199048
      1.52916667	     -4.69455090	      2.10608845	     -2.41378930	      0.63842047	      1.07127662	      0.26924500	     29.80262776	     -3.56779454	     -5.53226849	    -39.77524802	      5.67815080	     -9.33041930	      7.64248194	     -1.45217141	      4.67318261	      7.02902524	     -0.27172153	      4.26279304	     -6.56559466	      3.01994628	     -9.17815927	     -4.01450421	     -4.28863781
